; NON-PLATED HOLES START AT T1
; THROUGH (PLATED) HOLES START AT T100
M48
INCH
T100C0.038000
T101C0.015748
T102C0.035000
%
T100
X016738Y025329
X007738Y022329
X029738Y025329
X022738Y002329
X009738Y001329
X003738Y002329
X012738Y024329
X035738Y002329
X025738Y024329
X032738Y017329
X014738Y003329
X029738Y013329
X004738Y025329
X031738Y001329
X008738Y003329
X017738Y025329
X008738Y022329
X016738Y001329
X010738Y002329
X029738Y001329
X023738Y002329
X032738Y024329
X013738Y024329
X035738Y008329
X036738Y002329
X015738Y003329
X024738Y025329
X015738Y022329
X032738Y012329
X005738Y025329
X004738Y001329
X030738Y002329
X018738Y025329
X035738Y015329
X017738Y001329
X011738Y002329
X020738Y024329
X001738Y024329
X033738Y024329
X022738Y003329
X022738Y022329
X009738Y002329
X012738Y025329
X025738Y025329
X032738Y018329
X024738Y001329
X029738Y014329
X005738Y001329
X031738Y002329
X018738Y001329
X021738Y024329
X035738Y010329
X000738Y017829
X010738Y003329
X016738Y002329
X010738Y022329
X032738Y006329
X006738Y024329
X029738Y002329
X032738Y025329
X013738Y025329
X019738Y024329
X035738Y009329
X012738Y001329
X025738Y001329
X032738Y013329
X004738Y002329
X035738Y016329
X011738Y003329
X017738Y002329
X020738Y025329
X026738Y024329
X011738Y022329
X001738Y025329
X007738Y024329
X033738Y025329
X032738Y001329
X032738Y020329
X013738Y001329
X009738Y003329
X009738Y022329
X032738Y019329
X024738Y002329
X029738Y015329
X005738Y002329
X014738Y024329
X018738Y002329
X021738Y025329
X027738Y024329
X020738Y001329
X035738Y011329
X008738Y024329
X000738Y018829
X016738Y022329
X001738Y001329
X032738Y007329
X006738Y025329
X033738Y001329
X019738Y025329
X012738Y002329
X002738Y024329
X025738Y002329
X034738Y024329
X015738Y024329
X032738Y014329
X029738Y010329
X028738Y024329
X004738Y022329
X035738Y017329
X021738Y001329
X017738Y003329
X026738Y025329
X017738Y022329
X007738Y025329
X029738Y009329
X006738Y001329
X032738Y002329
X019738Y001329
X013738Y002329
X022738Y024329
X003738Y024329
X035738Y024329
X029738Y016329
X014738Y025329
X005738Y022329
X018738Y003329
X027738Y025329
X018738Y022329
X026738Y001329
X020738Y002329
X035738Y012329
X008738Y025329
X007738Y001329
X001738Y002329
X010738Y024329
X032738Y008329
X033738Y002329
X023738Y024329
X012738Y003329
X036738Y024329
X012738Y022329
X002738Y025329
X034738Y025329
X015738Y025329
X032738Y015329
X014738Y001329
X029738Y011329
X028738Y025329
X035738Y018329
X027738Y001329
X021738Y002329
X030738Y024329
X008738Y001329
X011738Y024329
X006738Y002329
X013738Y003329
X019738Y002329
X022738Y025329
X013738Y022329
X035738Y006329
X003738Y025329
X009738Y024329
X035738Y025329
X002738Y001329
X034738Y001329
X029738Y017329
X015738Y001329
X032738Y010329
X028738Y001329
X031738Y024329
X020738Y003329
X026738Y002329
X035738Y013329
X020738Y022329
X007738Y002329
X010738Y025329
X016738Y024329
X032738Y009329
X023738Y025329
X029738Y024329
X022738Y001329
X036738Y025329
X003738Y001329
X035738Y001329
X035738Y020329
X032738Y016329
X014738Y002329
X029738Y012329
X004738Y024329
X035738Y019329
X021738Y003329
X027738Y002329
X030738Y025329
X021738Y022329
X008738Y002329
X011738Y025329
X017738Y024329
X010738Y001329
X006738Y022329
X023738Y001329
X019738Y003329
X019738Y022329
X035738Y007329
X009738Y025329
X036738Y001329
X002738Y002329
X034738Y002329
X029738Y018329
X015738Y002329
X024738Y024329
X032738Y011329
X005738Y024329
X028738Y002329
X031738Y025329
X030738Y001329
X018738Y024329
X035738Y014329
X011738Y001329
T101
X030840Y015115
X037320Y022795
X015240Y005275
X015960Y023275
X030360Y019915
X030840Y008875
X015720Y004555
X025320Y023275
X023400Y020635
X021240Y018955
X030120Y008155
X010440Y022075
X017880Y006955
X019080Y020155
X025800Y003835
X031560Y004795
T102
X026040Y019675
X031080Y007435
T00
M30
