G04 MADE WITH FRITZING*
G04 WWW.FRITZING.ORG*
G04 DOUBLE SIDED*
G04 HOLES PLATED*
G04 CONTOUR ON CENTER OF CONTOUR VECTOR*
%ASAXBY*%
%FSLAX23Y23*%
%MOIN*%
%OFA0B0*%
%SFA1.0B1.0*%
%ADD10C,0.078000*%
%ADD11C,0.039370*%
%ADD12C,0.075000*%
%ADD13C,0.024000*%
%LNCOPPER1*%
G90*
G70*
G54D10*
X174Y2433D03*
X274Y2433D03*
X374Y2433D03*
X474Y2433D03*
X574Y2433D03*
X674Y2433D03*
X774Y2433D03*
X874Y2433D03*
X974Y2433D03*
X1074Y2433D03*
X1174Y2433D03*
X1274Y2433D03*
X1374Y2433D03*
X1474Y2433D03*
X1574Y2433D03*
X1674Y2433D03*
X1774Y2433D03*
X1874Y2433D03*
X1974Y2433D03*
X2074Y2433D03*
X2174Y2433D03*
X2274Y2433D03*
X2374Y2433D03*
X2474Y2433D03*
X2574Y2433D03*
X2674Y2433D03*
X2774Y2433D03*
X2874Y2433D03*
X2974Y2433D03*
X3074Y2433D03*
X3174Y2433D03*
X3274Y2433D03*
X3374Y2433D03*
X3474Y2433D03*
X3574Y2433D03*
X3674Y2433D03*
X174Y2533D03*
X274Y2533D03*
X374Y2533D03*
X474Y2533D03*
X574Y2533D03*
X674Y2533D03*
X774Y2533D03*
X874Y2533D03*
X974Y2533D03*
X1074Y2533D03*
X1174Y2533D03*
X1274Y2533D03*
X1374Y2533D03*
X1474Y2533D03*
X1574Y2533D03*
X1674Y2533D03*
X1774Y2533D03*
X1874Y2533D03*
X1974Y2533D03*
X2074Y2533D03*
X2174Y2533D03*
X2274Y2533D03*
X2374Y2533D03*
X2474Y2533D03*
X2574Y2533D03*
X2674Y2533D03*
X2774Y2533D03*
X2874Y2533D03*
X2974Y2533D03*
X3074Y2533D03*
X3174Y2533D03*
X3274Y2533D03*
X3374Y2533D03*
X3474Y2533D03*
X3574Y2533D03*
X3674Y2533D03*
X174Y233D03*
X274Y233D03*
X374Y233D03*
X474Y233D03*
X574Y233D03*
X674Y233D03*
X774Y233D03*
X874Y233D03*
X974Y233D03*
X1074Y233D03*
X1174Y233D03*
X1274Y233D03*
X1374Y233D03*
X1474Y233D03*
X1574Y233D03*
X1674Y233D03*
X1774Y233D03*
X1874Y233D03*
X1974Y233D03*
X2074Y233D03*
X2174Y233D03*
X2274Y233D03*
X2374Y233D03*
X2474Y233D03*
X2574Y233D03*
X2674Y233D03*
X2774Y233D03*
X2874Y233D03*
X2974Y233D03*
X3074Y233D03*
X3174Y233D03*
X3274Y233D03*
X3374Y233D03*
X3474Y233D03*
X3574Y233D03*
X3674Y233D03*
X174Y133D03*
X274Y133D03*
X374Y133D03*
X474Y133D03*
X574Y133D03*
X674Y133D03*
X774Y133D03*
X874Y133D03*
X974Y133D03*
X1074Y133D03*
X1174Y133D03*
X1274Y133D03*
X1374Y133D03*
X1474Y133D03*
X1574Y133D03*
X1674Y133D03*
X1774Y133D03*
X1874Y133D03*
X1974Y133D03*
X2074Y133D03*
X2174Y133D03*
X2274Y133D03*
X2374Y133D03*
X2474Y133D03*
X2574Y133D03*
X2674Y133D03*
X2774Y133D03*
X2874Y133D03*
X2974Y133D03*
X3074Y133D03*
X3174Y133D03*
X3274Y133D03*
X3374Y133D03*
X3474Y133D03*
X3574Y133D03*
X3674Y133D03*
X2274Y333D03*
X2174Y333D03*
X2074Y333D03*
X1974Y333D03*
X1874Y333D03*
X1774Y333D03*
X1574Y333D03*
X1474Y333D03*
X1374Y333D03*
X1274Y333D03*
X1174Y333D03*
X1074Y333D03*
X974Y333D03*
X874Y333D03*
X2274Y2233D03*
X2174Y2233D03*
X2074Y2233D03*
X1974Y2233D03*
X1874Y2233D03*
X1774Y2233D03*
X1674Y2233D03*
X1574Y2233D03*
X1374Y2233D03*
X1274Y2233D03*
X1174Y2233D03*
X1074Y2233D03*
X974Y2233D03*
X874Y2233D03*
X774Y2233D03*
X674Y2233D03*
X574Y2233D03*
X474Y2233D03*
X1374Y2233D03*
X1274Y2233D03*
X1174Y2233D03*
X1074Y2233D03*
X974Y2233D03*
X874Y2233D03*
X774Y2233D03*
X674Y2233D03*
X574Y2233D03*
X474Y2233D03*
G54D11*
X3156Y480D03*
X2340Y2064D03*
X2532Y2328D03*
X1572Y456D03*
X1596Y2328D03*
X2580Y384D03*
X3732Y2280D03*
X1908Y2016D03*
X1524Y528D03*
X3012Y816D03*
X1044Y2208D03*
X2124Y1896D03*
G54D12*
X3108Y744D03*
X2604Y1968D03*
G54D11*
X3084Y888D03*
X3084Y1512D03*
X3036Y1992D03*
X1788Y696D03*
G54D10*
X2974Y933D03*
X2974Y1033D03*
X2974Y1133D03*
X2974Y1233D03*
X2974Y1333D03*
X2974Y1433D03*
X2974Y1533D03*
X2974Y1633D03*
X2974Y1733D03*
X2974Y1833D03*
X2974Y933D03*
X2974Y1033D03*
X2974Y1133D03*
X2974Y1233D03*
X2974Y1333D03*
X2974Y1433D03*
X2974Y1533D03*
X2974Y1633D03*
X2974Y1733D03*
X2974Y1833D03*
X3274Y633D03*
X3274Y733D03*
X3274Y833D03*
X3274Y933D03*
X3274Y1033D03*
X3274Y1133D03*
X3274Y1233D03*
X3274Y1333D03*
X3274Y1433D03*
X3274Y1533D03*
X3274Y1633D03*
X3274Y1733D03*
X3274Y1833D03*
X3274Y1933D03*
X3274Y2033D03*
X3574Y633D03*
X3574Y733D03*
X3574Y833D03*
X3574Y933D03*
X3574Y1033D03*
X3574Y1133D03*
X3574Y1233D03*
X3574Y1333D03*
X3574Y1433D03*
X3574Y1533D03*
X3574Y1633D03*
X3574Y1733D03*
X3574Y1833D03*
X3574Y1933D03*
X3574Y2033D03*
X74Y1883D03*
X74Y1783D03*
G54D13*
X1504Y329D02*
X2244Y237D01*
D02*
X2204Y330D02*
X3244Y236D01*
D02*
X2086Y360D02*
X2844Y2064D01*
D02*
X2844Y2064D02*
X2412Y2064D01*
D02*
X2412Y2064D02*
X2412Y2208D01*
D02*
X2412Y2208D02*
X2424Y2208D01*
D02*
X2424Y2208D02*
X2772Y2376D01*
D02*
X2772Y2376D02*
X2773Y2403D01*
D02*
X3168Y465D02*
X3252Y360D01*
X3252Y360D02*
X3636Y312D01*
X3636Y312D02*
X3661Y260D01*
D02*
X2303Y339D02*
X3204Y528D01*
X3204Y528D02*
X3372Y384D01*
X3372Y384D02*
X3660Y384D01*
X3660Y384D02*
X3732Y288D01*
X3732Y288D02*
X3732Y72D01*
X3732Y72D02*
X3300Y72D01*
X3300Y72D02*
X3286Y105D01*
D02*
X2344Y2082D02*
X2388Y2304D01*
D02*
X2388Y2304D02*
X2513Y2324D01*
D02*
X804Y2231D02*
X1668Y2160D01*
D02*
X1668Y2160D02*
X1188Y2400D01*
D02*
X1188Y2400D02*
X1186Y2405D01*
D02*
X1004Y337D02*
X1812Y456D01*
X1812Y456D02*
X1591Y456D01*
D02*
X1614Y2321D02*
X2052Y2172D01*
D02*
X2052Y2172D02*
X1204Y2231D01*
D02*
X1804Y335D02*
X2561Y382D01*
D02*
X3732Y2299D02*
X3732Y2592D01*
D02*
X3732Y2592D02*
X2892Y2592D01*
X2892Y2592D02*
X2883Y2562D01*
D02*
X1060Y2560D02*
X1044Y2592D01*
D02*
X1044Y2592D02*
X108Y2592D01*
X108Y2592D02*
X108Y2376D01*
X108Y2376D02*
X156Y2352D01*
X156Y2352D02*
X1140Y2352D01*
X1140Y2352D02*
X1308Y2280D01*
D02*
X1308Y2280D02*
X1308Y2088D01*
D02*
X1308Y2088D02*
X1332Y2064D01*
D02*
X1332Y2064D02*
X1764Y2064D01*
D02*
X1764Y2064D02*
X903Y2227D01*
D02*
X1927Y2019D02*
X2268Y2088D01*
D02*
X2268Y2088D02*
X1404Y2228D01*
D02*
X1997Y114D02*
X2076Y48D01*
X2076Y48D02*
X3252Y48D01*
X3252Y48D02*
X3252Y24D01*
X3252Y24D02*
X3780Y24D01*
X3780Y24D02*
X3780Y336D01*
X3780Y336D02*
X3732Y408D01*
X3732Y408D02*
X3132Y600D01*
X3132Y600D02*
X2916Y600D01*
X2916Y600D02*
X2088Y2206D01*
D02*
X1654Y256D02*
X1524Y408D01*
X1524Y408D02*
X1524Y509D01*
D02*
X2993Y816D02*
X2964Y816D01*
X2964Y816D02*
X3024Y1584D01*
X3024Y1584D02*
X3252Y2160D01*
D02*
X3252Y2160D02*
X3228Y2208D01*
D02*
X3228Y2208D02*
X2916Y2208D01*
D02*
X2916Y2208D02*
X2004Y2232D01*
D02*
X1704Y2234D02*
X2676Y2256D01*
D02*
X2676Y2256D02*
X3276Y2256D01*
D02*
X3276Y2256D02*
X3780Y2232D01*
D02*
X3780Y2232D02*
X3780Y2640D01*
D02*
X3780Y2640D02*
X60Y2640D01*
X60Y2640D02*
X60Y2328D01*
D02*
X60Y2328D02*
X108Y2304D01*
D02*
X108Y2304D02*
X1092Y2304D01*
D02*
X1092Y2304D02*
X1260Y2232D01*
D02*
X1260Y2232D02*
X1260Y2040D01*
D02*
X1260Y2040D02*
X1284Y2016D01*
D02*
X1284Y2016D02*
X1860Y2016D01*
D02*
X1860Y2016D02*
X1860Y1968D01*
D02*
X1860Y1968D02*
X2508Y1968D01*
D02*
X2508Y1968D02*
X2508Y480D01*
X2508Y480D02*
X2532Y336D01*
X2532Y336D02*
X3036Y336D01*
X3036Y336D02*
X3063Y261D01*
D02*
X1056Y2193D02*
X1236Y1968D01*
D02*
X1236Y1968D02*
X2105Y1897D01*
D02*
X3084Y907D02*
X3084Y1493D01*
D02*
X3018Y1997D02*
X2303Y2224D01*
D02*
X1770Y690D02*
X1476Y600D01*
X1476Y600D02*
X1096Y253D01*
G04 End of Copper1*
M02*