G04 MADE WITH FRITZING*
G04 WWW.FRITZING.ORG*
G04 DOUBLE SIDED*
G04 HOLES PLATED*
G04 CONTOUR ON CENTER OF CONTOUR VECTOR*
%ASAXBY*%
%FSLAX23Y23*%
%MOIN*%
%OFA0B0*%
%SFA1.0B1.0*%
%ADD10C,0.084000*%
%ADD11C,0.049370*%
%ADD12R,0.084000X0.084000*%
%LNMASK1*%
G90*
G70*
G54D10*
X1884Y429D03*
X1984Y429D03*
X2084Y429D03*
X2184Y429D03*
X2284Y429D03*
X1434Y2329D03*
X1334Y2329D03*
X1234Y2329D03*
X1134Y2329D03*
X1034Y2329D03*
X934Y2329D03*
X834Y2329D03*
X734Y2329D03*
X2284Y2329D03*
X2184Y2329D03*
X2084Y2329D03*
X1984Y2329D03*
X1884Y2329D03*
X1784Y2329D03*
X1684Y2329D03*
X1584Y2329D03*
X1084Y429D03*
X1184Y429D03*
X1284Y429D03*
X1384Y429D03*
X1484Y429D03*
X1584Y429D03*
X1784Y429D03*
X317Y152D03*
X1016Y152D03*
X1116Y152D03*
X1215Y152D03*
X1914Y150D03*
X2014Y150D03*
X2214Y150D03*
X2314Y150D03*
X2513Y150D03*
X2713Y150D03*
X2912Y150D03*
X3012Y150D03*
X3112Y150D03*
X3212Y150D03*
X3312Y150D03*
X3511Y150D03*
X3611Y150D03*
X317Y249D03*
X916Y249D03*
X1016Y249D03*
X1116Y249D03*
X1515Y249D03*
X1615Y249D03*
X2214Y247D03*
X2413Y247D03*
X2713Y247D03*
X3012Y247D03*
X3212Y247D03*
X3511Y247D03*
X3611Y247D03*
X316Y2619D03*
X416Y2619D03*
X515Y2619D03*
X615Y2619D03*
X1015Y2619D03*
X1114Y2619D03*
X1214Y2619D03*
X1314Y2619D03*
X1913Y2617D03*
X2212Y2617D03*
X2712Y2617D03*
X2811Y2617D03*
X3610Y2617D03*
X315Y2519D03*
X415Y2519D03*
X515Y2519D03*
X615Y2519D03*
X1114Y2519D03*
X1213Y2519D03*
X1313Y2519D03*
X2012Y2518D03*
X2112Y2518D03*
X2212Y2518D03*
X2312Y2518D03*
X2411Y2518D03*
X2511Y2518D03*
X2711Y2518D03*
X2811Y2518D03*
X3609Y2518D03*
G54D11*
X2412Y512D03*
X1020Y560D03*
X2292Y512D03*
X2628Y1328D03*
G54D12*
X1434Y2329D03*
X2284Y2329D03*
G04 End of Mask1*
M02*