; NON-PLATED HOLES START AT T1
; THROUGH (PLATED) HOLES START AT T100
M48
INCH
T100C0.040000
T101C0.015748
%
T100
X005147Y025194
X020140Y001501
X020120Y025178
X010145Y026185
X006145Y025194
X013336Y023286
X011143Y026185
X027115Y026170
X012141Y026185
X013836Y004285
X028113Y026170
X022836Y004285
X022836Y023286
X007336Y023286
X035114Y001501
X015149Y002486
X035114Y002470
X036112Y001501
X036112Y002470
X016836Y023286
X009160Y002486
X030122Y001501
X003170Y001517
X019142Y001501
X013140Y026185
X019836Y004285
X019836Y023286
X011336Y023286
X022124Y026170
X003157Y026185
X003150Y025194
X019129Y026170
X016148Y002486
X011836Y004285
X020836Y004285
X010158Y001517
X020836Y023286
X010158Y002486
X011156Y001517
X030123Y002470
X014336Y023286
X031121Y001501
X027128Y001501
X027108Y025178
X011156Y002486
X012154Y001517
X027128Y002470
X003171Y002486
X014836Y004285
X028106Y025178
X029124Y001501
X021118Y025178
X008336Y023286
X011136Y025194
X012134Y025194
X004156Y026185
X017836Y004285
X005154Y026185
X017836Y023286
X006152Y026185
X022137Y001501
X012336Y023286
X022117Y025178
X022137Y002470
X023135Y001501
X023115Y025178
X012836Y004285
X013133Y025194
X024113Y025178
X021836Y004285
X036092Y025178
X024133Y002470
X025131Y001501
X021836Y023286
X025111Y025178
X015836Y004285
X036099Y026170
X015836Y023286
X009336Y023286
X032119Y001501
X032119Y002470
X033117Y001501
X018836Y004285
X018836Y023286
X010336Y023286
X004149Y025194
X010836Y004285
T101
X010200Y005599
X022920Y005119
X026280Y013279
X024120Y005119
T00
M30
