G04 MADE WITH FRITZING*
G04 WWW.FRITZING.ORG*
G04 DOUBLE SIDED*
G04 HOLES PLATED*
G04 CONTOUR ON CENTER OF CONTOUR VECTOR*
%ASAXBY*%
%FSLAX23Y23*%
%MOIN*%
%OFA0B0*%
%SFA1.0B1.0*%
%ADD10C,0.074000*%
%ADD11C,0.039370*%
%ADD12R,0.074000X0.074000*%
%ADD13C,0.024000*%
%LNCOPPER0*%
G90*
G70*
G54D10*
X1884Y429D03*
X1984Y429D03*
X2084Y429D03*
X2184Y429D03*
X2284Y429D03*
X1434Y2329D03*
X1334Y2329D03*
X1234Y2329D03*
X1134Y2329D03*
X1034Y2329D03*
X934Y2329D03*
X834Y2329D03*
X734Y2329D03*
X2284Y2329D03*
X2184Y2329D03*
X2084Y2329D03*
X1984Y2329D03*
X1884Y2329D03*
X1784Y2329D03*
X1684Y2329D03*
X1584Y2329D03*
X1084Y429D03*
X1184Y429D03*
X1284Y429D03*
X1384Y429D03*
X1484Y429D03*
X1584Y429D03*
X1784Y429D03*
X317Y152D03*
X1016Y152D03*
X1116Y152D03*
X1215Y152D03*
X1914Y150D03*
X2014Y150D03*
X2214Y150D03*
X2314Y150D03*
X2513Y150D03*
X2713Y150D03*
X2912Y150D03*
X3012Y150D03*
X3112Y150D03*
X3212Y150D03*
X3312Y150D03*
X3511Y150D03*
X3611Y150D03*
X317Y249D03*
X916Y249D03*
X1016Y249D03*
X1116Y249D03*
X1515Y249D03*
X1615Y249D03*
X2214Y247D03*
X2413Y247D03*
X2713Y247D03*
X3012Y247D03*
X3212Y247D03*
X3511Y247D03*
X3611Y247D03*
X316Y2619D03*
X416Y2619D03*
X515Y2619D03*
X615Y2619D03*
X1015Y2619D03*
X1114Y2619D03*
X1214Y2619D03*
X1314Y2619D03*
X1913Y2617D03*
X2212Y2617D03*
X2712Y2617D03*
X2811Y2617D03*
X3610Y2617D03*
X315Y2519D03*
X415Y2519D03*
X515Y2519D03*
X615Y2519D03*
X1114Y2519D03*
X1213Y2519D03*
X1313Y2519D03*
X2012Y2518D03*
X2112Y2518D03*
X2212Y2518D03*
X2312Y2518D03*
X2411Y2518D03*
X2511Y2518D03*
X2711Y2518D03*
X2811Y2518D03*
X3609Y2518D03*
G54D11*
X2292Y512D03*
X2412Y512D03*
X2628Y1328D03*
X1020Y560D03*
G54D12*
X1434Y2329D03*
X2284Y2329D03*
G54D13*
X957Y2349D02*
X996Y2384D01*
X996Y2384D02*
X1012Y2588D01*
D02*
X1343Y2358D02*
X1380Y2480D01*
X1380Y2480D02*
X1380Y2576D01*
X1380Y2576D02*
X1340Y2602D01*
D02*
X1808Y2348D02*
X1908Y2432D01*
X1908Y2432D02*
X1912Y2586D01*
D02*
X854Y2352D02*
X948Y2456D01*
X948Y2456D02*
X948Y2696D01*
X948Y2696D02*
X1044Y2696D01*
X1044Y2696D02*
X1093Y2642D01*
D02*
X1891Y170D02*
X1716Y320D01*
X1716Y320D02*
X1716Y488D01*
X1716Y488D02*
X2076Y488D01*
X2076Y488D02*
X2084Y2297D01*
D02*
X1983Y2297D02*
X1968Y584D01*
X1968Y584D02*
X1932Y536D01*
X1932Y536D02*
X1668Y536D01*
X1668Y536D02*
X1620Y279D01*
D02*
X1408Y2297D02*
X1380Y2264D01*
X1380Y2264D02*
X684Y2264D01*
X684Y2264D02*
X532Y2493D01*
D02*
X1683Y2298D02*
X1620Y488D01*
X1620Y488D02*
X1020Y488D01*
X1020Y488D02*
X1020Y344D01*
X1020Y344D02*
X1860Y80D01*
X1860Y80D02*
X2772Y80D01*
X2772Y80D02*
X2844Y224D01*
X2844Y224D02*
X2982Y243D01*
D02*
X1903Y404D02*
X1932Y368D01*
X1932Y368D02*
X2340Y368D01*
X2340Y368D02*
X2340Y488D01*
X2340Y488D02*
X2309Y503D01*
D02*
X1805Y406D02*
X1884Y320D01*
X1884Y320D02*
X2388Y320D01*
X2388Y320D02*
X2410Y493D01*
D02*
X2628Y1347D02*
X2652Y2576D01*
X2652Y2576D02*
X2686Y2599D01*
D02*
X2161Y2350D02*
X2076Y2432D01*
X2076Y2432D02*
X1956Y2432D01*
X1956Y2432D02*
X1956Y2576D01*
X1956Y2576D02*
X1980Y2576D01*
X1980Y2576D02*
X1980Y2672D01*
X1980Y2672D02*
X1860Y2696D01*
X1860Y2696D02*
X1524Y2408D01*
X1524Y2408D02*
X1025Y578D01*
D02*
X2282Y2288D02*
X2244Y1352D01*
X2244Y1352D02*
X3372Y200D01*
X3372Y200D02*
X3372Y80D01*
X3372Y80D02*
X2892Y32D01*
X2892Y32D02*
X1812Y32D01*
X1812Y32D02*
X1020Y104D01*
X1020Y104D02*
X1019Y121D01*
G04 End of Copper0*
M02*