<?xml version='1.0' encoding='UTF-8' standalone='no'?>
<!-- Created with Fritzing (http://www.fritzing.org/) -->
<svg xmlns:svg='http://www.w3.org/2000/svg' xmlns='http://www.w3.org/2000/svg' version='1.2' baseProfile='tiny' x='0in' y='0in' width='3.93701in' height='2.55906in' viewBox='0 0 283.465 184.252' >
<g partID='854129070'><g transform="matrix(1, 0, 0, 1, 0, -657.638)">
 <g  id="breadboard">
  <g transform="matrix(-1, 0, 0, -1, 170.305, 824.511)">
   <g >
    <g  gorn="0.3.0.0.0.0.0.21.0.0.0.0">
     <circle  fill="none" r="1.6416" cx="5.276" cy="22.452"/>
     <circle  fill="none" r="1.6416" cx="11.036" cy="22.452"/>
     <circle  fill="none" r="1.6416" cx="16.796" cy="22.452"/>
     <g  gorn="0.3.0.0.0.0.0.21.0.0.0.0.3" id="g65565">
      <g  gorn="0.3.0.0.0.0.0.21.0.0.0.0.3.0" id="g65567">
       <g  gorn="0.3.0.0.0.0.0.21.0.0.0.0.3.0.0" id="g65569">
        <path  gorn="0.3.0.0.0.0.0.21.0.0.0.0.3.0.0.0" fill="#808080" id="path65571" d="m16.4304,22.648,0.8408,0,0,-2.3136,-0.8408,0,0,2.3136z"/>
       </g>
       <g  gorn="0.3.0.0.0.0.0.21.0.0.0.0.3.0.1" id="g65573">
        <path  gorn="0.3.0.0.0.0.0.21.0.0.0.0.3.0.1.0" fill="#808080" id="path65575" d="m10.6616,22.648,0.8408,0,0,-2.3136,-0.8408,0,0,2.3136z"/>
       </g>
       <g  gorn="0.3.0.0.0.0.0.21.0.0.0.0.3.0.2" id="g65577">
        <path  gorn="0.3.0.0.0.0.0.21.0.0.0.0.3.0.2.0" fill="#808080" id="path65579" d="m4.8976,22.648,0.8408,0,0,-2.312,-0.84,0,-0.0008,2.312,0,0z"/>
       </g>
       <g  gorn="0.3.0.0.0.0.0.21.0.0.0.0.3.0.3" id="g65581">
        <path  gorn="0.3.0.0.0.0.0.21.0.0.0.0.3.0.3.0" fill="#b3b3b3" id="path65583" d="m16.3336,22.648,0.8416,0,0,-2.3136,-0.8416,0,0,2.3136z"/>
       </g>
       <g  gorn="0.3.0.0.0.0.0.21.0.0.0.0.3.0.4" id="g65585">
        <path  gorn="0.3.0.0.0.0.0.21.0.0.0.0.3.0.4.0" fill="#b3b3b3" id="path65587" d="m10.5648,22.648,0.8416,0,0,-2.3136,-0.8408,0,-0.0008,2.3136,0,0z"/>
       </g>
       <g  gorn="0.3.0.0.0.0.0.21.0.0.0.0.3.0.5" id="g65589">
        <path  gorn="0.3.0.0.0.0.0.21.0.0.0.0.3.0.5.0" fill="#b3b3b3" id="path65591" d="m4.8008,22.648,0.8408,0,0,-2.312,-0.84,0,-0.0008,2.312,0,0z"/>
       </g>
       <rect  gorn="0.3.0.0.0.0.0.21.0.0.0.0.3.0.6" style="opacity:0.2" id="rect65593" width="0.8408" x="4.8008" height="0.1616" y="21.3984"/>
       <rect  gorn="0.3.0.0.0.0.0.21.0.0.0.0.3.0.7" style="opacity:0.2" id="rect65595" width="0.8408" x="10.5656" height="0.1616" y="21.3984"/>
       <rect  gorn="0.3.0.0.0.0.0.21.0.0.0.0.3.0.8" style="opacity:0.2" id="rect65597" width="0.8408" x="16.3344" height="0.1616" y="21.3984"/>
      </g>
      <rect  gorn="0.3.0.0.0.0.0.21.0.0.0.0.3.1" fill="#1a1a1a" id="rect65599" width="15.3504" x="3.0864" height="1.5" y="19.0984"/>
      <g  gorn="0.3.0.0.0.0.0.21.0.0.0.0.3.2" id="g65601">
       <g  gorn="0.3.0.0.0.0.0.21.0.0.0.0.3.2.0" id="g65603">
        <rect  gorn="0.3.0.0.0.0.0.21.0.0.0.0.3.2.0.0" fill="#999999" id="rect65605" width="14.424" x="3.9944" height="15.8552" y="1.6072"/>
        <polygon  gorn="0.3.0.0.0.0.0.21.0.0.0.0.3.2.0.1" fill="#333333" id="polygon65607" points="5.332,10.8336,9.9488,10.8336,9.9488,15.452,12.1248,15.452,12.1248,10.8336,16.7392,10.8336,16.7392,8.6592,12.1248,8.6592,12.1248,4.0432,9.9488,4.0432,9.9488,8.6592,5.332,8.6592"/>
        <polygon  gorn="0.3.0.0.0.0.0.21.0.0.0.0.3.2.0.2" fill="#1a1a1a" id="polygon65609" points="5.332,8.6592,9.9488,8.6592,9.9488,4.0432,10.4616,4.0432,10.4616,9.1936,5.332,9.1936"/>
        <polygon  gorn="0.3.0.0.0.0.0.21.0.0.0.0.3.2.0.3" fill="#1a1a1a" id="polygon65611" points="10.4616,14.816,10.4616,11.4752,9.9488,10.8336,9.9488,14.816"/>
        <polygon  gorn="0.3.0.0.0.0.0.21.0.0.0.0.3.2.0.4" fill="#1a1a1a" id="polygon65613" points="15.964,9.1752,12.62,9.1752,12.1216,8.6624,15.964,8.6624"/>
        <path  gorn="0.3.0.0.0.0.0.21.0.0.0.0.3.2.0.5" fill="#3250be" id="path65615" d="m0,0,0,19.492,22.072,0L22.072,0,0,0Zm11.036,14.2672c-2.4968,0,-4.5208,-2.024,-4.5208,-4.5208,0,-2.4976,2.024,-4.5192,4.5208,-4.5192,2.4984,0,4.52,2.0216,4.52,4.5192,0.0016,2.496,-2.0216,4.5208,-4.52,4.5208z"/>
        <circle  gorn="0.3.0.0.0.0.0.21.0.0.0.0.3.2.0.6" fill="#333333" r="0.4176" id="circle65617" cx="8.0056" cy="6.6392"/>
        <circle  gorn="0.3.0.0.0.0.0.21.0.0.0.0.3.2.0.7" fill="#333333" r="0.4176" id="circle65619" cx="14.1424" cy="6.6392"/>
        <g  gorn="0.3.0.0.0.0.0.21.0.0.0.0.3.2.0.8" id="g65621">
         <path  gorn="0.3.0.0.0.0.0.21.0.0.0.0.3.2.0.8.0" fill="#263c8f" id="path65623" d="M7.5888,6.8536,5.5152,5.4664,4.9608,6.2936,7.036,7.6808C7.1904,7.384,7.3744,7.1088,7.5888,6.8536Z"/>
         <path  gorn="0.3.0.0.0.0.0.21.0.0.0.0.3.2.0.8.1" fill="#263c8f" id="path65625" d="m11.036,5.2256c0.1568,0,0.3032,0.0288,0.4544,0.0456L11.4576,1.6048,10.4616,1.616,10.496,5.28c0.1792,-0.0208,0.3544,-0.0544,0.54,-0.0544z"/>
         <path  gorn="0.3.0.0.0.0.0.21.0.0.0.0.3.2.0.8.2" fill="#263c8f" id="path65627" d="M9.252,5.5944,8.1104,3.576,7.2432,4.0656,8.3912,6.0944c0.268,-0.1952,0.5512,-0.3672,0.8608,-0.5z"/>
         <path  gorn="0.3.0.0.0.0.0.21.0.0.0.0.3.2.0.8.3" fill="#263c8f" id="path65629" d="m15.5576,9.7456c0,0.0432,-0.0128,0.08,-0.0144,0.1216l2.4504,-0.216,-0.088,-0.9904,-2.4352,0.2136c0.0544,0.2832,0.0872,0.5736,0.0872,0.8712z"/>
         <path  gorn="0.3.0.0.0.0.0.21.0.0.0.0.3.2.0.8.4" fill="#263c8f" id="path65631" d="M13.6184,6.0432,14.7056,4.052,13.8304,3.5752,12.7464,5.5648c0.3096,0.1272,0.6008,0.288,0.872,0.4784z"/>
         <path  gorn="0.3.0.0.0.0.0.21.0.0.0.0.3.2.0.8.5" fill="#263c8f" id="path65633" d="M15.044,7.6992,16.9848,6.4104,16.4344,5.5816,14.4936,6.8688c0.2144,0.2544,0.3984,0.5312,0.5504,0.8304z"/>
         <path  gorn="0.3.0.0.0.0.0.21.0.0.0.0.3.2.0.8.6" fill="#263c8f" id="path65635" d="m14.9984,11.884,2.5368,1.0168,0.3696,-0.924,-2.5344,-1.016c-0.0904,0.324,-0.216,0.632,-0.372,0.9232z"/>
         <path  gorn="0.3.0.0.0.0.0.21.0.0.0.0.3.2.0.8.7" fill="#263c8f" id="path65637" d="m13.72,13.3672,2.9504,3.164,0.7256,-0.6808,-2.9528,-3.1664c-0.216,0.2544,-0.4544,0.4856,-0.7232,0.6832z"/>
         <path  gorn="0.3.0.0.0.0.0.21.0.0.0.0.3.2.0.8.8" fill="#263c8f" id="path65639" d="m7.6104,12.6672,-2.0864,2.212,0.724,0.6824,2.0856,-2.2088C8.0664,13.1496,7.8272,12.9224,7.6104,12.6672Z"/>
         <path  gorn="0.3.0.0.0.0.0.21.0.0.0.0.3.2.0.8.9" fill="#263c8f" id="path65641" d="m6.5152,9.7456c0,-0.3152,0.0336,-0.6208,0.0952,-0.9192L3.972,8.568,3.8752,9.5576,6.5248,9.8176C6.5224,9.7936,6.5152,9.7728,6.5152,9.7456Z"/>
         <path  gorn="0.3.0.0.0.0.0.21.0.0.0.0.3.2.0.8.10" fill="#263c8f" id="path65643" d="m6.6768,10.8792,-2.6808,1.0168,0.352,0.932,2.688,-1.0168C6.8832,11.516,6.76,11.2064,6.6768,10.8792Z"/>
        </g>
        <polygon  gorn="0.3.0.0.0.0.0.21.0.0.0.0.3.2.0.9" fill="#cccccc" id="polygon65645" points="12.2592,10.9784,16.4512,10.96,16.4512,10.8336,12.1248,10.8336,12.1248,14.6072,12.2488,14.6072"/>
        <path  gorn="0.3.0.0.0.0.0.21.0.0.0.0.3.2.0.10" fill="#263c8f" id="path65647" d="m11.036,4.0056c-3.172,0,-5.7432,2.5712,-5.7432,5.744,0,3.1744,2.5712,5.7448,5.7432,5.7448,3.172,0,5.7424,-2.5704,5.7424,-5.7448,0,-3.1744,-2.572,-5.744,-5.7424,-5.744zm0,10.2616c-2.4968,0,-4.5208,-2.024,-4.5208,-4.5208,0,-2.4976,2.024,-4.5192,4.5208,-4.5192,2.4984,0,4.52,2.0216,4.52,4.5192,0.0016,2.496,-2.0216,4.5208,-4.52,4.5208z"/>
        <g  gorn="0.3.0.0.0.0.0.21.0.0.0.0.3.2.0.11" style="opacity:0.32000002" id="g65649">
         <path  gorn="0.3.0.0.0.0.0.21.0.0.0.0.3.2.0.11.0" stroke-width="0.16" fill="none" stroke="#000000" id="path65651" d="m14.5768,14.1264,-0.0784,0.0624c-1.0016,0.7808,-2.1984,1.1928,-3.4624,1.1928,-1.2752,0,-2.4832,-0.4176,-3.4864,-1.212L7.472,14.1072,6.2432,15.408,5.6768,14.8736,6.9048,13.5712,6.8392,13.4984C6.4904,13.1064,6.1984,12.672,5.9704,12.2008L5.9272,12.1128,4.4096,12.6864,4.132,11.9584,5.6456,11.3848,5.62,11.2896C5.4744,10.776,5.4,10.26,5.4,9.7464l0,-0.096,-0.0928,-0.0608,-1.3144,-0.1296,0.076,-0.776,1.4112,0.1408,0.0184,-0.0984C5.6072,8.1256,5.8088,7.5584,6.0944,7.0416L6.14,6.9568,5.1096,6.2632,5.544,5.6136,6.576,6.3048,6.6376,6.2264C6.9856,5.796,7.3896,5.4168,7.8432,5.104L7.924,5.048,7.3904,4.1072l0.6792,-0.384,0.5344,0.9448,0.0888,-0.04c0.576,-0.2648,1.1824,-0.4296,1.8016,-0.4872l0.0992,-0.0096,-0.0224,-2.4064,0.7808,-0.0104,0.0216,2.4128,0.0992,0.0096c0.6368,0.0488,1.248,0.2008,1.82,0.4504l0.0896,0.0408,0.4904,-0.9024,0.6872,0.3728,-0.4928,0.9016,0.0832,0.0528c0.4904,0.3264,0.928,0.7264,1.2968,1.196l0.064,0.0784,0.8936,-0.5968,0.4336,0.6496,-0.896,0.5928,0.0488,0.0864c0.2856,0.5256,0.4856,1.1104,0.5952,1.7264l0.0184,0.0984,1.208,-0.1048,0.0656,0.7784,-1.2064,0.104,-0.0016,0.0968c-0.0024,0.556,-0.0832,1.1056,-0.2456,1.6344l-0.0296,0.0944,1.3704,0.5488,-0.2888,0.7248,-1.376,-0.5504,-0.0448,0.0872c-0.224,0.4384,-0.508,0.8504,-0.8456,1.2232l-0.0656,0.0728,2.1,2.2512,-0.5712,0.5328,-2.0968,-2.2512z"/>
        </g>
        <path  gorn="0.3.0.0.0.0.0.21.0.0.0.0.3.2.0.12" style="opacity:0.35" id="path65653" d="m6.8264,10.1024c0,-2.4992,2.0232,-4.5208,4.5208,-4.5208,0.9336,0,2.216,0.4176,2.216,0.4176,-0.7192,-0.488,-1.592,-0.772,-2.5264,-0.772,-2.4968,0,-4.5208,2.0216,-4.5208,4.52,0,0.6512,0.1384,1.2728,0.3888,1.8352C6.904,11.5808,6.8264,10.7528,6.8264,10.1024Z" enable-background="new    "/>
       </g>
       <rect  gorn="0.3.0.0.0.0.0.21.0.0.0.0.3.2.1" fill="#ffffff" style="opacity:0.18000004;" id="rect65655" enable-background="new    " width="22.072" x="0" height="1.0496" y="18.9832"/>
       <rect  gorn="0.3.0.0.0.0.0.21.0.0.0.0.3.2.2" fill="#ffffff" style="opacity:0.18000004;" id="rect65657" enable-background="new    " width="22.072" x="0" height="0.2032" y="0"/>
      </g>
      <polygon  gorn="0.3.0.0.0.0.0.21.0.0.0.0.3.3" fill="#131e48" id="polygon65659" points="22.072,21.3984,22.072,19.2328,0,19.2328,0,21.3984"/>
     </g>
     <rect  gorn="0.3.0.0.0.0.0.21.0.0.0.0.4" fill="#ffffff" style="opacity:0.2;" id="rect65661" enable-background="new    " width="22.072" x="0" height="0.2168" y="0"/>
    </g>
   </g>
  </g>
 </g>
</g>
</g></svg>